<svg width="429" height="460" viewBox="0 0 429 460" fill="none" xmlns="http://www.w3.org/2000/svg">
<path d="M74.3632 138H331.763C336.499 138 340.343 133.888 340.343 128.8C340.343 123.712 336.499 119.6 331.763 119.6H74.3632C69.627 119.6 65.7832 123.712 65.7832 128.8C65.7832 133.888 69.6185 138 74.3632 138Z" fill="white"/>
<path d="M74.3632 340.4H331.763C336.499 340.4 340.343 336.288 340.343 331.2C340.343 326.112 336.499 322 331.763 322H74.3632C69.627 322 65.7832 326.112 65.7832 331.2C65.7832 336.288 69.6185 340.4 74.3632 340.4Z" fill="white"/>
<path d="M74.3632 239.2H331.763C336.499 239.2 340.343 235.088 340.343 230C340.343 224.912 336.499 220.8 331.763 220.8H74.3632C69.627 220.8 65.7832 224.912 65.7832 230C65.7832 235.088 69.6185 239.2 74.3632 239.2Z" fill="white"/>
</svg>
